# xmcd
#
# Track frame offsets: 
#        150
#        2025
#        19322
#        36522
#        50945
#        68569
#        87822
#        104406
#        120643
#        144946
#        163883
#        185343
#
# Disc length: 2764 seconds
#
# Revision: 0
# Processed by: cddbd v1.5.2PL0 Copyright (c) Steve Scherf et al.
# Submitted via: ExactAudioCopy v1.0b3
#
DISCID=a30aca0c
DTITLE=Jill Scott - The Original Jill Scott From The Vault Vol. 1
DYEAR=2011
DGENRE=Soul
TTITLE0=Intro - Love To Love Prelude
TTITLE1=I Don't Know (Gotta Have You)
TTITLE2=Wondering Why? (You Don't Talk To Me)
TTITLE3=The Light (Piano Mix)
TTITLE4=Wake Up Baby
TTITLE5=Lovely Day
TTITLE6=Dear Mr and Mrs Record Industry
TTITLE7=Love To Love
TTITLE8=Running Away
TTITLE9=I'm Prettier
TTITLE10=Comes To Light (Everything)
TTITLE11=Holding On
EXTD=
EXTT0=
EXTT1=
EXTT2=
EXTT3=
EXTT4=
EXTT5=
EXTT6=
EXTT7=
EXTT8=
EXTT9=
EXTT10=
EXTT11=
PLAYORDER=
